<svg width="28" height="28" viewBox="0 0 28 28" fill="none" xmlns="http://www.w3.org/2000/svg">
<path d="M23.3406 11.9875L14.5906 4.03593C14.4293 3.88836 14.2186 3.80652 14 3.80652C13.7814 3.80652 13.5707 3.88836 13.4094 4.03593L4.65937 11.9875C4.57133 12.0706 4.50081 12.1706 4.45197 12.2814C4.40313 12.3922 4.37696 12.5117 4.375 12.6328V22.75C4.375 22.9821 4.46719 23.2046 4.63128 23.3687C4.79538 23.5328 5.01794 23.625 5.25 23.625H22.75C22.9821 23.625 23.2046 23.5328 23.3687 23.3687C23.5328 23.2046 23.625 22.9821 23.625 22.75V12.6328C23.623 12.5117 23.5969 12.3922 23.548 12.2814C23.4992 12.1706 23.4287 12.0706 23.3406 11.9875Z" fill="#FF016B" stroke="#FF016B" stroke-linecap="round" stroke-linejoin="round"/>
<path fill-rule="evenodd" clip-rule="evenodd" d="M10.5 20C10.5 19.7239 10.7239 19.5 11 19.5H17C17.2761 19.5 17.5 19.7239 17.5 20C17.5 20.2761 17.2761 20.5 17 20.5H11C10.7239 20.5 10.5 20.2761 10.5 20Z" fill="black"/>
</svg>
