<svg width="64" height="48" viewBox="0 0 64 48" fill="none" xmlns="http://www.w3.org/2000/svg">
<path d="M41.3406 15.9875L32.5906 8.03593C32.4293 7.88836 32.2186 7.80652 32 7.80652C31.7814 7.80652 31.5707 7.88836 31.4094 8.03593L22.6594 15.9875C22.5713 16.0706 22.5008 16.1706 22.452 16.2814C22.4031 16.3922 22.377 16.5117 22.375 16.6328V26.75C22.375 26.9821 22.4672 27.2046 22.6313 27.3687C22.7954 27.5328 23.0179 27.625 23.25 27.625H40.75C40.9821 27.625 41.2046 27.5328 41.3687 27.3687C41.5328 27.2046 41.625 26.9821 41.625 26.75V16.6328C41.623 16.5117 41.5969 16.3922 41.548 16.2814C41.4992 16.1706 41.4287 16.0706 41.3406 15.9875Z" fill="#FF016B" stroke="#FF016B" stroke-linecap="round" stroke-linejoin="round"/>
<path fill-rule="evenodd" clip-rule="evenodd" d="M28.5 24C28.5 23.7239 28.7239 23.5 29 23.5H35C35.2761 23.5 35.5 23.7239 35.5 24C35.5 24.2761 35.2761 24.5 35 24.5H29C28.7239 24.5 28.5 24.2761 28.5 24Z" fill="black"/>
<path d="M35.2539 44.8086H28.082V41.832H35.2539V44.8086ZM28.9961 44.0938H34.3516V42.5469H28.9961V44.0938ZM35.8633 36.125H27.4141V35.4102H31.2109V34.3789H32.125V35.4102H35.8633V36.125ZM31.668 36.5469C32.7578 36.5547 33.5918 36.6836 34.1699 36.9336C34.752 37.1797 35.043 37.543 35.043 38.0234C35.043 38.4766 34.793 38.8262 34.293 39.0723C33.793 39.3184 33.0703 39.459 32.125 39.4941V40.2969H36.4141V41.0352H26.9219V40.2969H31.2109V39.4941C30.2617 39.459 29.5352 39.3184 29.0312 39.0723C28.5312 38.8262 28.2812 38.4766 28.2812 38.0234C28.2812 37.543 28.5723 37.1797 29.1543 36.9336C29.7402 36.6836 30.5781 36.5547 31.668 36.5469ZM31.668 37.1914C30.8906 37.1992 30.2949 37.2734 29.8809 37.4141C29.4668 37.5547 29.2617 37.7578 29.2656 38.0234C29.2578 38.2891 29.4648 38.4941 29.8867 38.6387C30.3086 38.7832 30.9023 38.8555 31.668 38.8555C32.4297 38.8555 33.0195 38.7832 33.4375 38.6387C33.8594 38.4941 34.0703 38.2891 34.0703 38.0234C34.0703 37.7578 33.8613 37.5547 33.4434 37.4141C33.0293 37.2734 32.4375 37.1992 31.668 37.1914Z" fill="#FF016B"/>
</svg>
