<svg width="28" height="28" viewBox="0 0 28 28" fill="none" xmlns="http://www.w3.org/2000/svg">
<path d="M19.8696 5.59766C19.0653 4.80942 18.1099 4.1921 17.0607 3.78289C16.0115 3.37367 14.8904 3.18103 13.7649 3.21656C11.5988 3.29574 9.54488 4.20006 8.02384 5.74431C6.5028 7.28856 5.6297 9.3559 5.58334 11.523C5.55376 13.3692 6.14119 15.1724 7.25253 16.647C7.40634 16.8777 11.3922 22.4192 12.7186 24.2576C12.8586 24.4511 13.0423 24.6088 13.2546 24.7182C13.467 24.8275 13.7022 24.8852 13.941 24.8867H13.948C14.1854 24.8863 14.4194 24.8304 14.6313 24.7233C14.8432 24.6162 15.0271 24.4609 15.1682 24.27C15.7849 23.4314 20.5918 16.8608 20.7185 16.7012C20.7258 16.6924 20.7324 16.6836 20.739 16.6741C21.8221 15.215 22.4103 13.4478 22.4177 11.6306C22.4215 10.5052 22.1977 9.39062 21.7598 8.35388C21.3219 7.31715 20.679 6.37963 19.8696 5.59766Z" stroke="#3A3A3A"/>
<path d="M14.0001 14C15.1599 14 16.1001 13.0598 16.1001 11.9C16.1001 10.7403 15.1599 9.80005 14.0001 9.80005C12.8403 9.80005 11.9001 10.7403 11.9001 11.9C11.9001 13.0598 12.8403 14 14.0001 14Z" fill="#3A3A3A"/>
</svg>
