<svg width="16" height="20" viewBox="0 0 16 20" fill="none" xmlns="http://www.w3.org/2000/svg">
<path d="M12.8914 2.99809C12.2211 2.34122 11.4249 1.82679 10.5506 1.48578C9.67632 1.14477 8.74205 0.984231 7.80408 1.01384C5.99899 1.07982 4.28743 1.83342 3.0199 3.1203C1.75237 4.40718 1.02478 6.12996 0.986147 7.93584C0.961501 9.47434 1.45103 10.9771 2.37714 12.2058C2.50532 12.3981 5.82685 17.016 6.93219 18.548C7.04888 18.7093 7.20192 18.8407 7.3789 18.9318C7.55588 19.0229 7.75183 19.071 7.95087 19.0723H7.95667C8.15452 19.072 8.34956 19.0254 8.52614 18.9361C8.70273 18.8469 8.85595 18.7175 8.97354 18.5584C9.48745 17.8595 13.4932 12.3841 13.5988 12.251C13.6049 12.2437 13.6104 12.2364 13.6159 12.2284C14.5185 11.0125 15.0087 9.53984 15.0148 8.02554C15.0179 7.08769 14.8314 6.15889 14.4665 5.29494C14.1016 4.431 13.5658 3.64973 12.8914 2.99809Z" fill="url(#paint0_linear_3744_303)" stroke="#3A3A3A"/>
<path d="M8.00009 10.0001C8.96659 10.0001 9.75009 9.21656 9.75009 8.25006C9.75009 7.28356 8.96659 6.50006 8.00009 6.50006C7.03359 6.50006 6.25009 7.28356 6.25009 8.25006C6.25009 9.21656 7.03359 10.0001 8.00009 10.0001Z" fill="#F5F5F5"/>
<defs>
<linearGradient id="paint0_linear_3744_303" x1="4.22285" y1="2.05241" x2="11.3725" y2="13.4679" gradientUnits="userSpaceOnUse">
<stop stop-color="#101010"/>
<stop offset="1" stop-color="#2F2F2F"/>
</linearGradient>
</defs>
</svg>
