<svg width="64" height="48" viewBox="0 0 64 48" fill="none" xmlns="http://www.w3.org/2000/svg">
<path d="M37.8696 9.59766C37.0653 8.80942 36.1099 8.1921 35.0607 7.78289C34.0115 7.37367 32.8904 7.18103 31.7649 7.21656C29.5988 7.29574 27.5449 8.20006 26.0238 9.74431C24.5028 11.2886 23.6297 13.3559 23.5833 15.523C23.5538 17.3692 24.1412 19.1724 25.2525 20.647C25.4063 20.8777 29.3922 26.4192 30.7186 28.2576C30.8586 28.4511 31.0423 28.6088 31.2546 28.7182C31.467 28.8275 31.7022 28.8852 31.941 28.8867H31.948C32.1854 28.8863 32.4194 28.8304 32.6313 28.7233C32.8432 28.6162 33.0271 28.4609 33.1682 28.27C33.7849 27.4314 38.5918 20.8608 38.7185 20.7012C38.7258 20.6924 38.7324 20.6836 38.739 20.6741C39.8221 19.215 40.4103 17.4478 40.4177 15.6306C40.4215 14.5052 40.1977 13.3906 39.7598 12.3539C39.3219 11.3171 38.679 10.3796 37.8696 9.59766Z" stroke="#3A3A3A"/>
<path d="M32.0001 18C33.1599 18 34.1001 17.0598 34.1001 15.9C34.1001 14.7403 33.1599 13.8 32.0001 13.8C30.8403 13.8 29.9001 14.7403 29.9001 15.9C29.9001 17.0598 30.8403 18 32.0001 18Z" fill="#3A3A3A"/>
<path d="M27.1133 36.0664C27.1133 36.6328 27.3027 37.1816 27.6816 37.7129C28.0645 38.2402 28.5547 38.6895 29.1523 39.0605C29.75 39.4277 30.3555 39.668 30.9688 39.7812L30.5469 40.5547C30.0156 40.4297 29.4922 40.2266 28.9766 39.9453C28.4609 39.6641 27.998 39.3164 27.5879 38.9023C27.1777 38.4883 26.8633 38.0332 26.6445 37.5371C26.4258 38.0293 26.1113 38.4824 25.7012 38.8965C25.291 39.3105 24.8281 39.6602 24.3125 39.9453C23.8008 40.2266 23.2773 40.4297 22.7422 40.5547L22.3203 39.7812C22.9336 39.6602 23.5371 39.418 24.1309 39.0547C24.7246 38.6875 25.209 38.2402 25.584 37.7129C25.9629 37.1855 26.1523 36.6367 26.1523 36.0664V35.2695H27.1133V36.0664ZM31.4609 43.5312H21.9219V42.7695H31.4609V43.5312ZM37.6461 36.207H36.5797V39.2773C37.1344 39.2305 37.6539 39.1719 38.1383 39.1016L38.2086 39.793C37.2516 39.9609 36.2359 40.0742 35.1617 40.1328C34.0914 40.1875 32.982 40.2148 31.8336 40.2148L31.7281 39.4297C32.3062 39.4297 32.7555 39.4277 33.0758 39.4238V36.207H32.0211V35.4453H37.6461V36.207ZM39.8375 37.4375H41.4078V38.2109H39.8375V41.5391H38.9234V34.5312H39.8375V37.4375ZM37.1305 41.2695C37.1266 41.75 37.2867 42.1934 37.6109 42.5996C37.9352 43.002 38.3668 43.3398 38.9059 43.6133C39.4449 43.8828 40.0289 44.0703 40.6578 44.1758L40.2828 44.9023C39.482 44.7578 38.7574 44.4863 38.109 44.0879C37.4605 43.6934 36.9859 43.207 36.6852 42.6289C36.3805 43.207 35.902 43.6934 35.2496 44.0879C34.5973 44.4863 33.8687 44.7578 33.0641 44.9023L32.7008 44.1758C33.3258 44.0703 33.9059 43.8828 34.441 43.6133C34.9801 43.3398 35.4098 43.002 35.7301 42.5996C36.0543 42.1934 36.2164 41.75 36.2164 41.2695V41.0234H37.1305V41.2695ZM33.9781 39.4062C34.5406 39.3945 35.107 39.3711 35.6773 39.3359V36.207H33.9781V39.4062Z" fill="#3A3A3A"/>
</svg>
