<svg width="28" height="28" viewBox="0 0 28 28" fill="none" xmlns="http://www.w3.org/2000/svg">
<path d="M14.4375 23.625H5.21718C5.10618 23.6265 4.996 23.6057 4.89316 23.5639C4.79032 23.5221 4.69689 23.4601 4.61839 23.3816C4.53989 23.3031 4.47791 23.2097 4.43611 23.1068C4.39431 23.004 4.37353 22.8938 4.375 22.7828V13.5625C4.375 10.8938 5.43515 8.33432 7.32223 6.44724C9.20932 4.56015 11.7688 3.5 14.4375 3.5V3.5C15.7589 3.5 17.0674 3.76027 18.2882 4.26596C19.5091 4.77165 20.6184 5.51285 21.5528 6.44724C22.4871 7.38163 23.2283 8.49091 23.734 9.71175C24.2397 10.9326 24.5 12.2411 24.5 13.5625V13.5625C24.5 14.8839 24.2397 16.1924 23.734 17.4133C23.2283 18.6341 22.4871 19.7434 21.5528 20.6778C20.6184 21.6121 19.5091 22.3533 18.2882 22.859C17.0674 23.3647 15.7589 23.625 14.4375 23.625V23.625Z" stroke="#3A3A3A" stroke-linecap="round" stroke-linejoin="round"/>
<path fill-rule="evenodd" clip-rule="evenodd" d="M10.4375 12.25C10.4375 11.9739 10.6614 11.75 10.9375 11.75H17.5C17.7761 11.75 18 11.9739 18 12.25C18 12.5261 17.7761 12.75 17.5 12.75H10.9375C10.6614 12.75 10.4375 12.5261 10.4375 12.25Z" fill="#3A3A3A"/>
<path fill-rule="evenodd" clip-rule="evenodd" d="M10.4375 15.75C10.4375 15.4739 10.6614 15.25 10.9375 15.25H17.5C17.7761 15.25 18 15.4739 18 15.75C18 16.0261 17.7761 16.25 17.5 16.25H10.9375C10.6614 16.25 10.4375 16.0261 10.4375 15.75Z" fill="#3A3A3A"/>
</svg>
