<svg width="64" height="48" viewBox="0 0 64 48" fill="none" xmlns="http://www.w3.org/2000/svg">
<path d="M32.4375 27.625H23.2172C23.1062 27.6265 22.996 27.6057 22.8932 27.5639C22.7903 27.5221 22.6969 27.4601 22.6184 27.3816C22.5399 27.3031 22.4779 27.2097 22.4361 27.1068C22.3943 27.004 22.3735 26.8938 22.375 26.7828V17.5625C22.375 14.8938 23.4351 12.3343 25.3222 10.4472C27.2093 8.56015 29.7688 7.5 32.4375 7.5V7.5C33.7589 7.5 35.0674 7.76027 36.2882 8.26596C37.5091 8.77165 38.6184 9.51285 39.5528 10.4472C40.4871 11.3816 41.2283 12.4909 41.734 13.7117C42.2397 14.9326 42.5 16.2411 42.5 17.5625V17.5625C42.5 18.8839 42.2397 20.1924 41.734 21.4133C41.2283 22.6341 40.4871 23.7434 39.5528 24.6778C38.6184 25.6121 37.5091 26.3533 36.2882 26.859C35.0674 27.3647 33.7589 27.625 32.4375 27.625V27.625Z" stroke="#3A3A3A" stroke-linecap="round" stroke-linejoin="round"/>
<path fill-rule="evenodd" clip-rule="evenodd" d="M28.4375 16.25C28.4375 15.9739 28.6614 15.75 28.9375 15.75H35.5C35.7761 15.75 36 15.9739 36 16.25C36 16.5261 35.7761 16.75 35.5 16.75H28.9375C28.6614 16.75 28.4375 16.5261 28.4375 16.25Z" fill="#3A3A3A"/>
<path fill-rule="evenodd" clip-rule="evenodd" d="M28.4375 19.75C28.4375 19.4739 28.6614 19.25 28.9375 19.25H35.5C35.7761 19.25 36 19.4739 36 19.75C36 20.0261 35.7761 20.25 35.5 20.25H28.9375C28.6614 20.25 28.4375 20.0261 28.4375 19.75Z" fill="#3A3A3A"/>
<path d="M24.9688 37.7305C24.9688 38.2891 25.0605 38.8379 25.2441 39.377C25.4277 39.916 25.6914 40.4043 26.0352 40.8418C26.3828 41.2754 26.7891 41.6172 27.2539 41.8672L26.7148 42.5586C26.207 42.2812 25.7676 41.8906 25.3965 41.3867C25.0254 40.8828 24.7422 40.3105 24.5469 39.6699C24.3555 40.3535 24.0742 40.9668 23.7031 41.5098C23.332 42.0527 22.8945 42.4727 22.3906 42.7695L21.8398 42.0898C22.2969 41.8242 22.6953 41.4609 23.0352 41C23.375 40.5352 23.6367 40.0195 23.8203 39.4531C24.0039 38.8828 24.0977 38.3086 24.1016 37.7305V37.25H22.0859V36.4883H24.1016V34.918H24.9805V36.4883H26.9727V37.25H24.9688V37.7305ZM30.875 44.9492H29.9844V39.5352H28.5664V44.4219H27.6875V34.7539H28.5664V38.75H29.9844V34.5312H30.875V44.9492ZM37.2945 36.0547H33.2281V37.3672H37.0016V38.1172H33.2281V39.4883C34.4117 39.4883 35.3531 39.4707 36.0523 39.4355C36.7516 39.3965 37.4508 39.3203 38.15 39.207L38.2437 39.957C37.5133 40.0742 36.7848 40.1523 36.0582 40.1914C35.3316 40.2305 34.3609 40.25 33.1461 40.25H32.3023V35.3047H37.2945V36.0547ZM40.2945 41H39.3805V34.543H40.2945V41ZM36.8375 41.1523C37.5562 41.1484 38.1793 41.2207 38.7066 41.3691C39.234 41.5137 39.6383 41.7285 39.9195 42.0137C40.2008 42.2949 40.3414 42.6328 40.3414 43.0273C40.3414 43.4297 40.2008 43.7715 39.9195 44.0527C39.6383 44.3379 39.234 44.5547 38.7066 44.7031C38.1832 44.8516 37.5602 44.9258 36.8375 44.9258C36.0992 44.9258 35.4664 44.8516 34.9391 44.7031C34.4117 44.5586 34.0074 44.3438 33.7262 44.0586C33.4488 43.7734 33.3102 43.4297 33.3102 43.0273C33.3102 42.6328 33.4488 42.2949 33.7262 42.0137C34.0074 41.7285 34.4117 41.5137 34.9391 41.3691C35.4703 41.2207 36.1031 41.1484 36.8375 41.1523ZM36.8375 41.8789C36.2945 41.8789 35.8258 41.9258 35.4312 42.0195C35.0406 42.1094 34.7418 42.2402 34.5348 42.4121C34.3277 42.584 34.2242 42.7891 34.2242 43.0273C34.2242 43.2734 34.3277 43.4844 34.5348 43.6602C34.7418 43.8359 35.0406 43.9688 35.4312 44.0586C35.8258 44.1523 36.2945 44.1992 36.8375 44.1992C37.3687 44.1992 37.8297 44.1523 38.2203 44.0586C38.6109 43.9648 38.9117 43.8301 39.1227 43.6543C39.3336 43.4785 39.4391 43.2695 39.4391 43.0273C39.4391 42.793 39.3336 42.5898 39.1227 42.418C38.9117 42.2422 38.609 42.1094 38.2145 42.0195C37.8238 41.9258 37.3648 41.8789 36.8375 41.8789Z" fill="#3A3A3A"/>
</svg>
