<svg width="40" height="40" viewBox="0 0 40 40" fill="none" xmlns="http://www.w3.org/2000/svg">
<path d="M13.179 17.3401C13.1778 16.4391 13.3548 15.5467 13.6998 14.7144C14.0449 13.8821 14.5513 13.1263 15.1897 12.4906C15.8281 11.8548 16.586 11.3516 17.4197 11.01C18.2534 10.6684 19.1465 10.4951 20.0475 10.5001C23.8095 10.5286 26.821 13.6541 26.821 17.4256V18.1001C26.821 21.501 27.5335 23.477 28.1604 24.56C28.227 24.6754 28.2622 24.8062 28.2623 24.9394C28.2624 25.0725 28.2275 25.2034 28.1611 25.3189C28.0947 25.4343 27.9992 25.5303 27.884 25.5972C27.7689 25.6641 27.6381 25.6996 27.505 25.7H12.495C12.3619 25.6996 12.2311 25.6641 12.116 25.5972C12.0008 25.5303 11.9053 25.4343 11.8389 25.3189C11.7725 25.2034 11.7376 25.0725 11.7377 24.9394C11.7378 24.8062 11.7729 24.6754 11.8395 24.56C12.4665 23.477 13.179 21.501 13.179 18.1001V17.3401Z" stroke="#F5F5F5" stroke-linecap="round" stroke-linejoin="round"/>
<path d="M16.9601 25.7V26.46C16.9601 27.2663 17.2804 28.0395 17.8505 28.6096C18.4206 29.1797 19.1938 29.5 20.0001 29.5C20.8063 29.5 21.5796 29.1797 22.1497 28.6096C22.7198 28.0395 23.0401 27.2663 23.0401 26.46V25.7" stroke="#F5F5F5" stroke-linecap="round" stroke-linejoin="round"/>
<circle cx="30" cy="11" r="2" fill="#EA0000"/>
</svg>
