<svg width="64" height="48" viewBox="0 0 64 48" fill="none" xmlns="http://www.w3.org/2000/svg">
<path d="M32 18C34.5773 18 36.6666 15.9107 36.6666 13.3334C36.6666 10.756 34.5773 8.66669 32 8.66669C29.4227 8.66669 27.3333 10.756 27.3333 13.3334C27.3333 15.9107 29.4227 18 32 18Z" stroke="#3A3A3A"/>
<path d="M41.3333 26.1667V27.3334C41.3333 27.6428 41.2104 27.9395 40.9916 28.1583C40.7728 28.3771 40.4761 28.5 40.1667 28.5H23.8333C23.5239 28.5 23.2272 28.3771 23.0084 28.1583C22.7896 27.9395 22.6667 27.6428 22.6667 27.3334V26.1667C22.6667 24.3102 23.4042 22.5297 24.7169 21.2169C26.0297 19.9042 27.8101 19.1667 29.6667 19.1667H34.3333C36.1898 19.1667 37.9703 19.9042 39.2831 21.2169C40.5958 22.5297 41.3333 24.3102 41.3333 26.1667Z" stroke="#3A3A3A"/>
<path d="M27.1602 42.3008H22.3555V35.5859H27.1602V42.3008ZM23.2461 41.5508H26.2461V36.3242H23.2461V41.5508ZM29.9844 38.6914H31.7305V39.4883H29.9844V44.9492H29.0703V34.5312H29.9844V38.6914ZM40.2828 44.9727H39.357V34.5312H40.2828V44.9727ZM34.7398 35.3398C35.2555 35.3438 35.7145 35.4961 36.1168 35.7969C36.5191 36.0938 36.8336 36.5156 37.0602 37.0625C37.2867 37.6094 37.4 38.2461 37.4 38.9727C37.4 39.6992 37.2867 40.3359 37.0602 40.8828C36.8336 41.4297 36.5191 41.8516 36.1168 42.1484C35.7145 42.4453 35.2555 42.5938 34.7398 42.5938C34.2242 42.5938 33.7633 42.4453 33.357 42.1484C32.9547 41.8516 32.6402 41.4297 32.4137 40.8828C32.191 40.3359 32.0797 39.6992 32.0797 38.9727C32.0797 38.2461 32.191 37.6094 32.4137 37.0625C32.6402 36.5156 32.9547 36.0938 33.357 35.7969C33.7594 35.4961 34.2203 35.3438 34.7398 35.3398ZM34.7398 36.1602C34.3922 36.1641 34.0836 36.2832 33.8141 36.5176C33.5484 36.748 33.3414 37.0762 33.193 37.502C33.0445 37.9238 32.9703 38.4141 32.9703 38.9727C32.9703 39.5312 33.0445 40.0234 33.193 40.4492C33.3414 40.8711 33.5504 41.1973 33.8199 41.4277C34.0895 41.6582 34.3961 41.7734 34.7398 41.7734C35.0836 41.7734 35.3902 41.6582 35.6598 41.4277C35.9293 41.1973 36.1383 40.8711 36.2867 40.4492C36.4352 40.0234 36.5094 39.5312 36.5094 38.9727C36.5094 38.4141 36.4352 37.9238 36.2867 37.502C36.1383 37.0762 35.9293 36.748 35.6598 36.5176C35.3941 36.2832 35.0875 36.1641 34.7398 36.1602Z" fill="#3A3A3A"/>
</svg>
