<svg width="14" height="13" viewBox="0 0 14 13" fill="none" xmlns="http://www.w3.org/2000/svg">
<path d="M5.47831 1.68328C5.95727 0.209183 8.04273 0.209184 8.52169 1.68328L8.88592 2.80426C9.10012 3.46349 9.71445 3.90983 10.4076 3.90983H11.5863C13.1362 3.90983 13.7807 5.89321 12.5267 6.80426L11.5732 7.49706C11.0124 7.90449 10.7777 8.62668 10.9919 9.28591L11.3562 10.4069C11.8351 11.881 10.148 13.1068 8.89402 12.1957L7.94046 11.5029C7.37968 11.0955 6.62032 11.0955 6.05954 11.5029L5.10598 12.1957C3.85204 13.1068 2.16487 11.881 2.64384 10.4069L3.00806 9.28591C3.22226 8.62668 2.98761 7.90449 2.42683 7.49706L1.47327 6.80426C0.21933 5.89321 0.86377 3.90983 2.41373 3.90983H3.59239C4.28555 3.90983 4.89988 3.46349 5.11408 2.80426L5.47831 1.68328Z" fill="url(#paint0_linear_3744_309)"/>
<defs>
<linearGradient id="paint0_linear_3744_309" x1="-0.171582" y1="-1.51767" x2="13.0206" y2="10.2516" gradientUnits="userSpaceOnUse">
<stop stop-color="#FF006B"/>
<stop offset="1" stop-color="#FF4593"/>
</linearGradient>
</defs>
</svg>
